<svg width="990" height="1137" xmlns="http://www.w3.org/2000/svg" xmlns:xlink="http://www.w3.org/1999/xlink" xml:space="preserve" overflow="hidden"><defs><clipPath id="clip0"><rect x="1095" y="728" width="990" height="1137"/></clipPath><clipPath id="clip1"><rect x="1366" y="972" width="515" height="574"/></clipPath><clipPath id="clip2"><rect x="1366" y="972" width="515" height="574"/></clipPath><clipPath id="clip3"><rect x="1366" y="972" width="515" height="574"/></clipPath><clipPath id="clip4"><rect x="1381" y="991" width="482" height="535"/></clipPath><clipPath id="clip5"><rect x="1381" y="991" width="482" height="535"/></clipPath><clipPath id="clip6"><rect x="1381" y="991" width="482" height="535"/></clipPath><clipPath id="clip7"><rect x="1100" y="731" width="984" height="1132"/></clipPath><clipPath id="clip8"><rect x="1100" y="731" width="984" height="1132"/></clipPath></defs><g clip-path="url(#clip0)" transform="translate(-1095 -728)"><path d="M1671.33 1556.49C1714.86 1555.62 1756.99 1574.33 1794.58 1591.48L1794.55 1591.76C1820.55 1600.23 1855.02 1603.2 1880.49 1591.93L1902.23 1580.49C1873.96 1614 1833.12 1632.44 1787.38 1625.07 1744.1 1619.98 1714.84 1586.53 1676.63 1569.86 1667.32 1568.89 1656.19 1568.39 1647.06 1570.69 1682.33 1588.8 1716.33 1611.86 1745.74 1640.3L1727.6 1655.81C1699.66 1624.93 1665.83 1594.25 1628.92 1576.25 1590.99 1593.26 1554.99 1622.33 1528.8 1657L1510.66 1641.49C1540.57 1610.29 1573.74 1588.55 1609.84 1570.41 1567.2 1557.17 1541.45 1599.18 1508.23 1613.22 1471.96 1631.66 1421.12 1633.96 1385.85 1611.09 1374.08 1602.42 1362.98 1596.55 1352.68 1584.28 1407.25 1623.66 1477.8 1588.22 1529.44 1564.68 1559.01 1555.04 1597.88 1555.04 1627.45 1564.68 1642.16 1559.25 1656.82 1556.78 1671.33 1556.49ZM1371.62 1454.08 1371.73 1454.11C1424.33 1484.32 1459.64 1555.4 1524.48 1558.34 1468.44 1563.21 1415.17 1596.22 1356.53 1573.84 1325.49 1563.9 1295.75 1538.4 1279.08 1508.99 1316.13 1550.17 1373.97 1543.63 1424.44 1549.84 1439.45 1550.67 1453.16 1556.84 1468.19 1555.37 1454.76 1549.81 1438.62 1547.87 1426.52 1537.24 1395.15 1515.56 1394.15 1480.55 1371.62 1454.08ZM1881.21 1450.62C1858.51 1487.53 1843 1547.15 1788.26 1551.58 1787.24 1551.25 1786.8 1552.38 1786.13 1553.05 1802.97 1553.05 1819.47 1548.15 1836.14 1546.02 1886.28 1541.42 1941.02 1543.72 1974.99 1503.21 1951.79 1546.98 1906.55 1575.73 1857.21 1577.86 1811.11 1580.82 1774.5 1560.08 1730.4 1556.81 1750.33 1550.94 1770.57 1547.18 1787.57 1534.27 1818.25 1510.29 1847.38 1472.72 1881.16 1450.65ZM1308.96 1360.65 1309.07 1360.68C1345.51 1398.23 1360.21 1446.13 1376.71 1492.38 1384.35 1510.52 1393.82 1525.22 1410.49 1538.12 1364.92 1524.89 1312.95 1527.49 1275.7 1494.65 1244.64 1471.55 1218.83 1437.5 1212.3 1399.56 1235.78 1451.48 1293.29 1463.28 1334.96 1490.25 1347.83 1498.25 1358.77 1510.18 1373.17 1516.39L1373.83 1515.72C1329.56 1484.85 1325.63 1431.07 1317.46 1382.39ZM1943.98 1355.59 1944.06 1355.61C1921.47 1405.9 1935.87 1474.02 1882.6 1509.19L1880.47 1512.12 1884.06 1512.12C1914.91 1485.15 1951.84 1465.71 1988.28 1448.71 2009.35 1434.84 2030.26 1417.31 2040.22 1393.49 2032.22 1450.34 1973.88 1505.09 1918.34 1519.13 1893.87 1524.36 1867.67 1527.63 1843.86 1535.3 1889.93 1496.26 1886.17 1433.67 1919.34 1387.93ZM1280.66 1272.6C1307.46 1332.41 1289.8 1410.36 1322.97 1467.54 1276.23 1435.81 1206.98 1403.46 1189.98 1340.72 1183.78 1322.44 1183.78 1301.03 1184.11 1280.77 1189.35 1336.81 1250.76 1363.26 1275.12 1410 1279.17 1416.84 1283.26 1424.37 1289.8 1427.64 1270.06 1400.06 1265.16 1360.46 1275.12 1326.68 1278.06 1309.04 1284.26 1292.04 1280.66 1272.6ZM1972.22 1266.73 1972.47 1266.81C1970.67 1316.96 1998.61 1372.17 1967.41 1417.11L1962.98 1422.65C1963.97 1424.12 1965.91 1423.29 1966.57 1421.82 1988.03 1379.98 2032.14 1347.11 2057.95 1306.96 2063.51 1296.66 2067.47 1285.89 2068.58 1273.79 2081.65 1362.48 2002.1 1423.29 1936.09 1459.4L1930.55 1464.11C1964.55 1406.76 1944.26 1326.82 1972.22 1266.73ZM1195.51 1150.6 1194.34 1171.03C1196.44 1217.51 1229.71 1253.03 1234.73 1299.07 1235.39 1308.57 1238.99 1317.04 1242.76 1324.41 1240.62 1309.87 1236.55 1293.7 1239.16 1277.19 1243.25 1236.96 1278.2 1209.07 1285.56 1170.31 1288.52 1224.58 1269.09 1271.93 1256.82 1320.94 1254.88 1334.98 1254.22 1352.46 1257.49 1366.19 1238.71 1333.38 1202.61 1306.93 1192.64 1269 1184.04 1241.42 1181.43 1208.32 1187.08 1178.62ZM1195.52 1150.37 1195.58 1150.37 1195.51 1150.6ZM2055.93 1145.2 2063.06 1166C2076.74 1218.47 2063.84 1279.71 2026.82 1318.48 2014.09 1331.85 2006.25 1346.09 1995.62 1359.82 2006.25 1301.34 1969.48 1255.76 1966.88 1199.71 1964.91 1188.39 1964.19 1176.89 1964.75 1165.41 1975.38 1210.38 2021.45 1241.89 2014.09 1295 2013.42 1303.5 2008.99 1310.98 2009.66 1319.01 2019.74 1305.11 2016.97 1284.84 2023.5 1269 2033.8 1232.7 2057.09 1200.75 2057.28 1161.48ZM2055.56 1144.14 2055.84 1144.17 2055.93 1145.2ZM1240.46 1036.59 1240.38 1036.86C1215.73 1077.54 1243.7 1126.89 1235.67 1174.6L1233.37 1201.4 1234.84 1202.87C1236.3 1196.5 1238.44 1189.97 1238.44 1183.27 1246.94 1141.92 1293.06 1121.68 1312.45 1086.71 1309.01 1151.42 1243.84 1190.47 1234.37 1252.38 1227.17 1203.04 1194.69 1161.36 1206.12 1107.28 1212.02 1081.2 1223.46 1056.89 1240.46 1036.59ZM2006.53 1029.69C2026.74 1050.27 2037.87 1076.74 2044.74 1103.71 2057.36 1157.46 2023.03 1196.83 2018.6 1246.18 2011.9 1194.54 1962.56 1162.53 1946.06 1114.98 1941.99 1104.07 1939.86 1092.63 1936.92 1081.2 1956.03 1114.84 2003.21 1134.64 2012.07 1174.79 2013.87 1182.19 2014.53 1189.83 2017.13 1196.86 2018.3 1178.92 2015.36 1161.14 2014.53 1143.14 2015.8 1106.04 2028.24 1061.45 2006.5 1029.75ZM1308.21 978.714C1267.4 1008.34 1279.5 1064.67 1258.1 1104.71L1259.56 1104.71C1273.96 1056.53 1332.11 1050.63 1349.77 1005.41 1348.64 1043.46 1318.9 1077.6 1285.73 1099 1271.36 1111.08 1254.86 1127.25 1246.36 1144.25 1253 1102.77 1233.62 1054.39 1257.43 1019.42L1257.4 1019.42C1268.67 1000.59 1286.81 984.751 1308.21 978.714ZM1939.1 973.087 1959.71 982.388C1979.04 994.448 1993.95 1014.09 2000.33 1035.65 2010.57 1069.12 1997.67 1104.76 2005.03 1138.74 1981.55 1091.66 1919.59 1079.09 1903.75 1027.15L1897.38 1000.34C1917.79 1046.11 1974.3 1051.32 1990.97 1099.83 1990 1086.9 1982.14 1075.16 1979.2 1062.26 1970.89 1039.2 1970.02 1012.12 1956.93 991.335ZM1939.05 973.038 1939.1 973.087 1939.05 973.065ZM1393.41 936.43 1393.35 936.458C1357.08 963.429 1347.31 1006.07 1309.73 1032.21L1285.09 1053.26C1293.45 1029.25 1298.33 1003.88 1314.5 982.84 1335.26 956.7 1365.44 947.506 1393.41 936.43ZM1853.66 932.077 1881.45 942.528C1909.66 954.782 1936.94 972.913 1947.47 1002.45 1954.53 1016.48 1956 1032.99 1962.7 1047.03 1931.02 1024.79 1898.99 989.818 1876.12 954.54ZM1853.58 932 1853.66 932.077 1853.52 932.027Z" fill="#008FD5" fill-rule="evenodd" fill-opacity="1"/><g clip-path="url(#clip1)"><g clip-path="url(#clip2)"><g clip-path="url(#clip3)"><path d="M230.622 569.227C207.986 557.573 173.292 542.198 151.328 534.085 126.136 524.851 100.721 517.769 74.1847 512.614 68.7609 511.538 40.0283 506.742 13.9404 502.483 7.665 501.497 1.97228 500.332 1.29991 499.973L0 499.301 0 490.246C0 474.468 2.68947 412.745 4.70658 381.457 5.4686 370.161 7.88912 340.263 8.33737 337.305 9.50281 328.923 14.8818 303.507 18.4229 289.432 26.2672 258.279 33.2598 237.301 45.5418 208.12 51.862 193.104 57.7789 181.988 71.6297 159.127 81.8497 142.363 89.2906 131.381 101.752 114.751 117.53 93.773 135.191 75.4846 160.786 53.7447 189.787 29.0463 193.732 25.9534 206.552 18.3333 211.079 15.599 216.592 12.1923 218.878 10.7131 223.675 7.53053 236.45 1.16544 239.408 0.448246 241.38-0.0448246 241.694 0.0448246 245.908 1.79298 254.155 5.2893 261.103 8.78562 265.586 11.744 268.051 13.3129 273.833 16.8989 278.45 19.678 289.612 26.3568 297.187 32.2737 322.513 53.9688 339.501 68.5368 341.518 70.4642 354.428 83.9564 371.327 101.617 374.24 105.114 389.257 125.867 401.359 142.587 408.217 153.345 421.62 176.385 432.826 195.749 443.584 220.447 453.714 250.121 461.379 272.668 472.003 317.986 474.872 340.443 477.964 364.469 481.55 429.599 483.03 488.184 483.299 499.166 483.254 499.704 482.492 499.973 479.847 500.735 460.528 504.232 446.005 506.518 426.192 509.7 406.917 513.152 396.922 515.303 368.234 521.579 340.353 530.409 311.755 542.288 294.139 549.594 270.965 560.173 253.662 568.824 240.977 575.189 242.187 575.189 230.622 569.227Z" fill="#2D85C7" fill-rule="nonzero" fill-opacity="1" transform="matrix(1.06579 0 0 -1 1366 1545.88)"/></g></g></g><g clip-path="url(#clip4)"><g clip-path="url(#clip5)"><g clip-path="url(#clip6)"><path d="M214.953 530.552C193.855 519.689 161.518 505.359 141.046 497.797 117.566 489.19 93.8774 482.589 69.1443 477.785 64.089 476.782 37.3087 472.312 12.9933 468.343 7.14421 467.424 1.83828 466.337 1.21159 466.003L0 465.376 0 456.937C0 442.231 2.50674 384.701 4.3868 355.539 5.09704 345.011 7.35311 317.144 7.7709 314.387 8.85715 306.574 13.8706 282.886 17.1712 269.767 24.4825 240.731 31 221.178 42.4475 193.98 48.3383 179.984 53.8531 169.623 66.7629 148.315 76.2885 132.69 83.2238 122.454 94.8384 106.954 109.545 87.4017 126.006 70.3559 149.861 50.093 176.892 27.0728 180.569 24.19 192.518 17.0876 196.737 14.5391 201.876 11.3639 204.007 9.98518 208.477 7.01887 220.384 1.08625 223.142 0.41779 224.98-0.041779 225.272 0.041779 229.2 1.67116 236.887 4.92992 243.363 8.18869 247.541 10.9461 249.838 12.4084 255.228 15.7507 259.531 18.341 269.934 24.5661 276.995 30.0809 300.6 50.3019 316.434 63.8801 318.314 65.6766 330.347 78.2521 346.097 94.713 348.813 97.9718 362.809 117.315 374.089 132.899 380.481 142.926 392.973 164.4 403.418 182.449 413.445 205.469 422.887 233.127 430.031 254.142 439.933 296.38 442.607 317.312 445.49 339.705 448.832 400.41 450.211 455.015 450.461 465.251 450.42 465.752 449.709 466.003 447.244 466.713 429.238 469.972 415.701 472.103 397.235 475.069 379.27 478.286 369.953 480.292 343.215 486.141 317.228 494.371 290.573 505.442 274.154 512.252 252.554 522.112 236.427 530.176 224.604 536.108 225.732 536.108 214.953 530.552Z" fill="#FFFFFF" fill-rule="nonzero" fill-opacity="1" transform="matrix(1.06577 0 0 -1 1382 1525.89)"/></g></g></g><g clip-path="url(#clip7)"><g clip-path="url(#clip8)"><path d="M1609.49 1427.92C1607.05 1427.87 1604.72 1429.22 1599.53 1431.94 1598.97 1432.23 1598.31 1432.55 1597.72 1432.86 1597.69 1440.06 1597.99 1447.23 1599.08 1453.94 1543.98 1455.48 1491.54 1477.1 1452.24 1514.44L1425.12 1489.31C1418.37 1490.44 1411.91 1491.54 1404.97 1492.69 1399.34 1493.59 1394.23 1494.63 1393.63 1494.97L1392.46 1495.57 1392.46 1503.82C1392.46 1506.39 1392.54 1510.64 1392.69 1515.5 1398.37 1508.18 1404.41 1501.08 1410.9 1494.25L1412.24 1498.17 1441.28 1525.43C1420.83 1544.63 1406.3 1567.24 1396.06 1591.61 1396.27 1595.33 1396.48 1599.69 1396.69 1602.84 1397.15 1609.92 1398.31 1624.7 1399.13 1634.3 1407.45 1597.85 1424.66 1564.83 1450.5 1536.23L1450.5 1533.67C1459.05 1544.06 1469.47 1554.15 1480.81 1562.95 1452.7 1591.97 1437.67 1628.52 1434.98 1668.81L1436.31 1670.7C1426.66 1669.84 1415.83 1670.07 1405.24 1670.15 1406.52 1676.06 1407.83 1681.83 1408.94 1686.35 1418.08 1686.64 1427.24 1686.21 1436.31 1685.06 1434.52 1690.36 1434.4 1697.01 1437.14 1702.09 1435.87 1700.76 1434.3 1699.59 1433.02 1698.62 1423.91 1697.91 1423.6 1709.04 1415.1 1709.32 1415.1 1709.33 1415.09 1709.33 1415.09 1709.34 1420.1 1726.63 1425.53 1741.76 1433.35 1760.6 1439.02 1774.26 1444.33 1784.38 1456.77 1805.18 1463.19 1815.87 1468.47 1824.01 1474.84 1833.11 1476.06 1833.02 1477.33 1832.73 1478.62 1832.06 1487.44 1825.58 1498.49 1829.47 1507.61 1823.99 1509.99 1818.53 1503.87 1818.36 1503.87 1813.87L1503.89 1813.88C1531.54 1833.97 1564.09 1848.42 1600.09 1846.38 1599.36 1859.38 1598.6 1873.97 1600.69 1886.38L1597.4 1884.49C1555.32 1882.52 1517.62 1868.29 1484.24 1846.13 1493.66 1858.76 1503.91 1870.37 1516.46 1882.53 1542.33 1893.31 1570.46 1899.21 1599.92 1900.04L1600.52 1899.3C1598.15 1911.73 1599.78 1925.49 1599.18 1938.47L1601.12 1941.65C1597.3 1941.41 1593.52 1941.09 1589.75 1940.73 1594.48 1943.74 1604.9 1948.98 1607.42 1949.6 1609.2 1950.05 1609.47 1949.97 1613.25 1948.38 1619.7 1945.62 1625.15 1942.87 1629.13 1940.41 1625.43 1940.71 1621.73 1940.97 1617.99 1941.13L1616.04 1942.42 1616.04 1898.8C1630.83 1901.11 1645.91 1897.19 1660.4 1894.88 1666.65 1896.18 1671.42 1902.27 1676.89 1905.31 1678.69 1903.77 1679.99 1902.66 1682.04 1900.89 1697.29 1887.64 1699.1 1885.87 1710.7 1873.6 1722.59 1860.99 1726.93 1856.07 1734.68 1845.53L1728.64 1850.44C1729.58 1848.38 1732.68 1846.52 1730.59 1844.23 1723.86 1837.45 1734.62 1831.82 1737.6 1826.04 1737.2 1814.04 1707.29 1813.46 1727.47 1799.76L1727.47 1799.23C1732.55 1808.61 1747.18 1813.4 1746.57 1825.63 1746.92 1826.16 1747.35 1826.63 1747.82 1827.06 1753.17 1819.28 1757.8 1812.01 1763.39 1802.59 1761.7 1798.8 1759.02 1795.56 1754.64 1794.22 1753 1793.52 1752.35 1795.37 1751.34 1796.11L1751.34 1799.73C1745.96 1798.44 1742.41 1791.92 1737.6 1789.03L1739.56 1789.03C1758.37 1768.82 1771.51 1745.42 1778.24 1720.01 1781.2 1721.02 1783.62 1721.31 1786 1719.42 1789.6 1710.91 1776.59 1708.6 1782.27 1699.5 1781.96 1694.02 1785.25 1689.1 1783.6 1683.91L1783.65 1683.89C1791.89 1685.17 1800.95 1685.32 1810.02 1685.1 1811.29 1679.73 1812.53 1674.35 1813.65 1669.1L1784.1 1669.63C1782.74 1662.7 1784.41 1654.32 1780.37 1648.4L1782.32 1633.38C1780.65 1629.46 1778.3 1633.37 1776.34 1634.11 1772.61 1645.2 1760.8 1657.19 1769.92 1669.6L1753.78 1668.86C1755.88 1666 1752.45 1661.79 1754.55 1658.17 1763.67 1660.5 1764.52 1650.24 1769.34 1645.75 1770.7 1639 1778.45 1631.8 1771.71 1624.7 1776.46 1617.78 1774.08 1608.41 1771.1 1602.2 1769.15 1599.6 1762.45 1602.78 1764.09 1597.29 1765.74 1595.55 1768.14 1594.26 1767.38 1591.08 1765.58 1588.19 1763.32 1591.47 1760.95 1590.49 1760.22 1587.06 1766.65 1585.3 1762.91 1582.41 1758.57 1576.35 1750.79 1588.63 1749.15 1579.23 1750.06 1573.92 1744.65 1570.15 1740.34 1566.82 1735.27 1567.39 1739.59 1560.89 1736.3 1559.3 1724.92 1554.14 1729.87 1539.1 1722.22 1533.79 1723.29 1534.33 1724.68 1534.28 1726.45 1533.19 1728.83 1531.18 1732.12 1528.71 1735.56 1530.6 1741.8 1535.2 1742.29 1542.97 1742.57 1549.2 1743.94 1554.65 1747.47 1557.01 1752.29 1559.3 1761.4 1557.44 1757.96 1570.69 1767.38 1570.41 1771.68 1573.04 1775.43 1577.2 1780.8 1577.2 1787.22 1582.09 1790.95 1589.46 1795.58 1595.38 1798.87 1597.27 1802.31 1595.07 1805.3 1594.09 1811.64 1606.73 1816.18 1620.14 1819.5 1634.03 1820.54 1623.9 1821.61 1609.28 1822.61 1592.04 1821.23 1589 1819.77 1585.98 1818.22 1583.03 1818.22 1572.21 1808.55 1566.43 1804.8 1557.62 1794.83 1549.1 1789.4 1537.67 1777.61 1529.6 1775.23 1527.99 1776.29 1523.82 1772.54 1523.82L1777.18 1523.23 1805.38 1493.93C1812.65 1501.66 1819.44 1509.63 1825.81 1517.82 1825.94 1513.76 1826.07 1509.7 1826.17 1505.7 1826.33 1498.84 1826.36 1496.5 1826.15 1495.6 1825.95 1495.37 1825.76 1495.15 1825.57 1494.94 1823.02 1494.22 1805.87 1491.07 1792.92 1489.01 1791.46 1488.77 1790.06 1488.53 1788.62 1488.29 1780.52 1493.78 1773.41 1501.3 1768.54 1509.78L1768.54 1510.52C1766.44 1505.92 1760.47 1503.04 1761.07 1496.82 1756.29 1492.49 1752.54 1485.71 1745.53 1484.42 1743 1476.29 1734.87 1480.58 1729.73 1476.31 1729.27 1476.18 1728.83 1476.05 1728.37 1475.92 1710.38 1486.56 1694.38 1465.46 1676.04 1463.19 1658.5 1458.07 1640.2 1453.53 1621.24 1454.65 1622.29 1451.62 1622.27 1447.16 1618.54 1445.86 1617.34 1446.57 1615.54 1446.58 1615.25 1448.45 1615.74 1442.73 1615.99 1436.37 1616 1430.17 1613.08 1428.72 1611.23 1427.95 1609.49 1427.92ZM1635.24 1439.66 1629.05 1442.36C1626.95 1443.34 1620.24 1440.07 1621.28 1445.54 1625.02 1447.85 1628.75 1450.44 1633.38 1451.03 1640.57 1447.95 1648.59 1449.65 1656.05 1449.31 1649.14 1446.21 1642.07 1442.94 1635.24 1439.66ZM1614.55 1468.18C1624.23 1470.8 1635.3 1471.12 1645.31 1472.83 1665.06 1476.7 1683.74 1481.94 1701.5 1490.16 1712.45 1495.35 1708.64 1507.05 1716.75 1513.27 1719.72 1518.16 1713.76 1522.81 1719.43 1526.98 1719.34 1529.38 1720.1 1532.35 1721.87 1533.57 1720.12 1532.47 1717.78 1531.84 1714.52 1531.89 1710.95 1527.3 1706.16 1518.78 1699.73 1518.19 1697.3 1522.81 1704.64 1524.94 1704.04 1529.6L1703.02 1529.6C1703.02 1533.46 1704.9 1537.09 1708.11 1539.41 1681.53 1520.25 1649.25 1510.14 1615.2 1509.55 1615.94 1496.83 1616.69 1481.2 1614.6 1468.23L1614.55 1468.18ZM1599.08 1469.5C1598.31 1482.51 1598.31 1496.53 1599.08 1509.5 1558.01 1510.09 1519.73 1526.38 1491.38 1553.12 1482.58 1543.7 1472.13 1532.32 1461.37 1525.1 1500.35 1491.6 1547.11 1473.42 1599.08 1469.5ZM1745.21 1480.16C1746.62 1481.61 1748.25 1482.44 1750.79 1481.41 1750.2 1481.29 1749.38 1481.14 1748.85 1481.01 1747.63 1480.74 1746.43 1480.45 1745.21 1480.16ZM1600 1523.27C1597.75 1535.96 1598.36 1551.81 1599.25 1563.64 1574.16 1564.51 1550.26 1574.29 1532.34 1590.93 1521.89 1581.56 1513.07 1570.57 1502 1563.64 1530.7 1542.16 1561.63 1526.27 1598.67 1524.24L1600 1523.27ZM1615.25 1523.84 1615.31 1523.84C1653.38 1526.46 1686.39 1540.48 1715.81 1563 1705.35 1568.63 1694.89 1581.02 1685.48 1590.43 1667.56 1574.71 1640.95 1564.9 1616.01 1563 1616.9 1550.28 1617.36 1535.99 1615.25 1523.84ZM1724.75 1572.31 1724.77 1572.41C1731.19 1581.95 1743.27 1589.74 1743.75 1601.28 1741.66 1602.58 1739.99 1605.46 1739.71 1608.06 1746.39 1614.12 1754.89 1615.58 1758.95 1623.65 1760.44 1632.42 1768.46 1641.85 1758.35 1649.06 1757.27 1650.92 1754.59 1652.24 1751.91 1651.66 1749.78 1647.05 1755.6 1645.45 1754.59 1640.55 1756.53 1639.52 1759.98 1636.93 1757.88 1634.33 1753.24 1633.48 1751.89 1626.53 1746.82 1626.24 1741.76 1624.92 1738.01 1628.12 1735.33 1630.41 1734.61 1629.23 1733.71 1628.15 1732.63 1627.23 1733.83 1625.49 1736.69 1623.31 1734.59 1621.02 1729.66 1618.42 1728.9 1612.19 1723.53 1609.31 1713.84 1608.16 1706.06 1609.02 1697.25 1606.13 1688.29 1604.13 1690.83 1613.92 1687.54 1617.84 1687.23 1618.56 1685 1616.53 1684.25 1614.65 1696.21 1601.19 1712.09 1586.31 1724.75 1572.31ZM1491.43 1573.55C1502.47 1583.4 1510.83 1593.77 1523.08 1602 1515.76 1602.7 1514.29 1612.66 1506.95 1613.4 1499.21 1617.32 1496.83 1625.57 1487.71 1626.86 1482.79 1629.31 1489.21 1633.93 1483.09 1635.24 1470.22 1634.53 1468.6 1649.4 1464.55 1657.62 1464.55 1661.96 1463.94 1666.71 1466.93 1670.03L1449.2 1670.63C1453.5 1649.38 1456.48 1627.69 1466.93 1609.09 1473.51 1596.42 1482.32 1584.45 1491.43 1573.6L1491.43 1573.55ZM1615.99 1578.62C1636.71 1581.8 1655.4 1588.75 1673.1 1599.25 1670.72 1601.7 1665.51 1604.01 1664.75 1607.62 1667.13 1608.32 1668.49 1611.19 1671.18 1608.61 1667.78 1619.13 1652.21 1617.84 1650.57 1628.52 1641.97 1637.05 1637.15 1618.27 1628.79 1626.64L1625.5 1626.64C1633.31 1621.42 1648.06 1615.68 1645.96 1602.95 1644.34 1601.63 1644.34 1597.44 1640.9 1599.03 1637.18 1603.66 1631.36 1604.96 1628.07 1610.44L1617 1606.52 1615.99 1578.62ZM1598.67 1579.35 1598.72 1579.35C1600.21 1588.16 1597.51 1600.27 1601.1 1609.38 1597.69 1603.6 1585.88 1615.74 1588.26 1603.6 1584.21 1603.6 1583.49 1608.24 1581.84 1611.12 1583.76 1614.74 1579.1 1617.33 1578.09 1620.51 1575.11 1620.2 1571.36 1623.85 1568.98 1619.93 1564.35 1622.23 1561.5 1619.93 1558.21 1616.74 1554.62 1617.65 1554.31 1623.53 1550.87 1618.64 1551.18 1617.05 1554.9 1616.75 1553.56 1614.16 1549.53 1610.57 1544.14 1608.36 1538.77 1607.37 1554.88 1590.46 1576.14 1582.54 1598.67 1579.35ZM1604.38 1629.07C1605.28 1629.05 1606.17 1629.09 1607.03 1629.16 1606.77 1630.04 1607.51 1630.58 1608.11 1631.19 1606.67 1630.67 1600.2 1630.05 1599.57 1633.34 1599.57 1638.85 1606.6 1640.42 1609.28 1644.04 1620.6 1639.55 1622.71 1653.56 1631.83 1655.15 1626.76 1659.88 1639.16 1664.5 1631.06 1667.38 1631.21 1670.01 1628.1 1671.28 1629.11 1674.18 1634.51 1674.76 1634.21 1680.39 1636.88 1683.57 1637.19 1687.17 1635.55 1691.64 1640.18 1693.67 1639.26 1698.12 1638.99 1702.73 1636.88 1706.65 1631.64 1707.97 1627.77 1706.8 1623.14 1707.38 1615.4 1711.62 1620.47 1724.76 1609.71 1724.03 1598.5 1724.91 1589.24 1721.28 1580.74 1715.51 1587.69 1713.92 1593.38 1716.23 1598.45 1711.04 1598.45 1708.17 1601.74 1706.11 1600.4 1703.52 1603.39 1699.6 1607.41 1694.46 1605.03 1689.82 1605.77 1686.95 1602.05 1686.5 1600.4 1684.91 1594.15 1685.63 1587.26 1682.87 1581.59 1687.51 1582.09 1691.38 1581.59 1696.32 1577.29 1697.3 1572.51 1698.04 1573.27 1704.55 1569.52 1704.82L1566.22 1699.04 1567.56 1699.04C1567.13 1700.34 1568.17 1701.34 1569.52 1701.07 1575.8 1701.34 1572.81 1694.27 1575.18 1691.68L1579.81 1685.45C1577.53 1684.33 1575.76 1682.27 1576.52 1679.69 1574.14 1678.11 1570.85 1679.67 1570.1 1682.27 1570.25 1684.89 1570.09 1687.17 1568.14 1689.05L1566.8 1689.05C1567.54 1687.46 1565.45 1686.85 1564.85 1685.87 1556.16 1686.17 1548.85 1690.94 1540.35 1689.05 1548.06 1687.22 1545.4 1667.71 1558.06 1676.81L1560.02 1674.51C1563.77 1677.7 1560.72 1687.11 1568.82 1685.22 1572.85 1675.79 1568.07 1660.82 1580.62 1657.19 1582.08 1648.8 1593.73 1650.12 1598.54 1643.89 1602.28 1641.28 1599.3 1635.41 1598.54 1631.49L1597.78 1630.9 1597.32 1630.87C1599 1629.58 1601.69 1629.1 1604.38 1629.07ZM1483.21 1664.39C1487.53 1664.7 1493.39 1663.67 1494.28 1668.86 1496.52 1675.35 1492.92 1684.73 1494.88 1690.64L1488.45 1693.83C1486.06 1692.27 1484.72 1688.66 1481.43 1688.93 1477.74 1691.55 1482.8 1693.56 1482.04 1696.45 1481.72 1698.58 1481.14 1700.93 1481.43 1703.24 1479.2 1703.55 1476.8 1701.64 1475.46 1704.52 1475.46 1708.86 1480.24 1710.01 1482.62 1712.04 1487.08 1710.57 1486.92 1703.23 1487.68 1698.33L1492.32 1700.92C1496.25 1720.21 1505.31 1738.18 1518.59 1753.06L1482.59 1789.17C1482.59 1786.59 1477.96 1788.18 1480.64 1785 1482.86 1783.7 1486.6 1782.55 1486.31 1779.22 1486.7 1772.98 1484.35 1766.86 1479.88 1762.34 1478.56 1753.23 1479.88 1742.7 1474.82 1735.61 1476.16 1725.79 1470.49 1717.3 1463.33 1710.2 1466.3 1704.99 1460.04 1702.39 1461.98 1696.9 1467.8 1695.46 1474.83 1693.88 1473.48 1685.8 1476.47 1683.6 1481.58 1687.51 1482.59 1682.62 1483.21 1676.57 1473.32 1667.62 1483.2 1664.43L1483.21 1664.39ZM1742.83 1682.59C1749.72 1686.86 1760.26 1684.31 1768.46 1685.16 1765.78 1693.71 1766.09 1703.37 1763.4 1711.89 1762.55 1702.91 1749.69 1699.78 1749.99 1690.67L1742.83 1682.59ZM1449.2 1684.27C1453.38 1686.72 1457.1 1686.72 1462.03 1685.74 1455.78 1686.18 1458.31 1696.12 1455.02 1700.77 1462.76 1704.53 1454.37 1708.88 1453.1 1713.21 1455.05 1703.21 1452.06 1693.46 1449.18 1684.37L1449.2 1684.27ZM1510.07 1701.83C1512.9 1705.7 1521.26 1701.54 1521.4 1707.9 1524.67 1710.78 1529.18 1706.46 1528.42 1712.38 1530.51 1717.13 1534.83 1718.87 1538.87 1720.46 1540.5 1718.15 1537.09 1716.56 1538.11 1713.68 1541.4 1715.55 1539.79 1721.18 1542.17 1724.38 1543.38 1725.52 1542.48 1727.26 1542.78 1728.85L1530.12 1741.26C1523.41 1729.6 1515.48 1718.74 1512.19 1705.77L1509.81 1701.85 1510.07 1701.83ZM1554.92 1712.54 1559.07 1715.16C1554.92 1714.85 1552.69 1720.36 1548.94 1721.95 1551.17 1719.05 1554.15 1716.17 1554.92 1712.54ZM1669.5 1721.78 1669.55 1721.78C1671.91 1721.78 1671.91 1727.54 1676.38 1727.41 1679.07 1729.55 1678.92 1732.6 1679.69 1735.48 1678.92 1736.65 1677.27 1736.06 1675.94 1736.06 1675.17 1729.28 1663.53 1729.85 1669.5 1721.78ZM1760.61 1722.31C1755.81 1743.68 1743.41 1760.29 1729.22 1777.62 1727 1774.61 1728.06 1768.43 1723.26 1767.84 1719.8 1771.76 1717.57 1776.35 1716.82 1781.54 1711.18 1785.71 1701.76 1783.99 1694.29 1784.73 1687.28 1778.51 1677.71 1778.51 1669.05 1775.33L1669.05 1772.73C1682.04 1773.02 1694.89 1776.08 1706.69 1780.25 1718 1781.52 1716.37 1768.85 1720.11 1762.92 1719.82 1759.59 1719.8 1756.14 1722.8 1754.11 1722.95 1749.21 1722.18 1743.97 1719.5 1739.81 1714.31 1737.92 1708.18 1739.82 1706.85 1744.71 1705.8 1746.01 1706.26 1748.2 1704.16 1749.19 1701.45 1747.72 1696.08 1753.09 1694.44 1748.45 1706.84 1752.12 1703.3 1735.33 1715.96 1738.66 1719.4 1734.03 1724.15 1729.55 1724.77 1723.62 1725.08 1726.08 1725.68 1728.81 1728.06 1729.41 1734.77 1730.12 1733.13 1719.3 1740.89 1724.93L1741.2 1724.91C1748.52 1725.93 1753.6 1722.04 1760.61 1722.31ZM1568.36 1724.34 1568.36 1724.36C1569.4 1730.4 1576.56 1731.12 1580.62 1734.15 1587.95 1736.48 1595.42 1741.99 1603.77 1738.07 1600.34 1739.36 1603.45 1743.41 1602.44 1745.29 1601.83 1747.76 1600.19 1751.07 1601.83 1754.68 1603.17 1756.87 1604.83 1756.87 1605.12 1759.17 1602.74 1761.8 1598.7 1759.47 1596.01 1761.06 1593.35 1764.96 1593.35 1769.87 1593.63 1774.76 1574.51 1771.87 1557.33 1763.21 1542.54 1752.37L1568.36 1724.34ZM1660.82 1744.16C1661.57 1744.12 1662.33 1744.17 1663.07 1744.29 1661.7 1749.04 1654.87 1748.2 1651.58 1752.37 1650.56 1748.08 1655.55 1744.36 1660.82 1744.16ZM1666.82 1758.58C1670.22 1759.9 1668.74 1764.89 1667.56 1767.08 1662.92 1773.27 1654.39 1778.19 1646.04 1779.48 1644.42 1782.42 1644.41 1786.31 1640.37 1786.58 1636.94 1780.81 1625.58 1787.91 1626.18 1778.51 1619.96 1779.22 1613.52 1776.33 1608.47 1780.8 1605.35 1781.39 1601.32 1782.84 1598.34 1779.51 1598.92 1776.91 1604.01 1778.24 1605.35 1774.61 1611.63 1775.32 1611.79 1767.81 1615.08 1765.21 1619.23 1765.93 1623.88 1758.11 1626.56 1764.63 1633.1 1762.03 1637.27 1776.62 1639.22 1765.21 1642.61 1766.22 1645.9 1771.43 1649.35 1767.81 1652.19 1766.07 1649.76 1762.89 1648.75 1761.6 1652.04 1763.2 1656.37 1767.96 1659.8 1763.48 1661.46 1760.18 1663.84 1760.17 1666.82 1758.58ZM1529.69 1763.03C1541.96 1777.03 1559.11 1784.28 1576.14 1789.76 1579.43 1788.86 1582.57 1788.47 1585.87 1787.88 1579.12 1788.76 1573.76 1791.8 1570.31 1797.28 1571.99 1803.52 1562.57 1804.81 1565.26 1810.74 1569.89 1817.96 1573.93 1827.63 1584.07 1828.92 1556.11 1824.62 1526.24 1810.86 1502.65 1791.08L1500.69 1791.08C1510.87 1782.84 1521.18 1773.17 1529.69 1763.05L1529.69 1763.03ZM1614 1849.05C1618.68 1854.59 1628.14 1851.02 1634.55 1854.04 1634.85 1858.36 1629.46 1863.89 1633.21 1869.08 1635.33 1876.83 1643.38 1876.29 1648.75 1881.47 1639.63 1883.04 1625.91 1882.76 1616.04 1886.38L1616.64 1853.45 1614 1849.05Z" fill="#2D85C7" fill-rule="nonzero" fill-opacity="1" transform="matrix(1.06511 0 0 1 -94.7241 -427.546)"/></g></g><path d="M1442.03 912.707 1463.46 901.93 1464.05 903.109 1462.97 903.653C1461.74 904.272 1460.98 904.901 1460.69 905.539 1460.4 906.178 1460.4 906.794 1460.7 907.388 1460.93 907.855 1461.21 908.221 1461.53 908.486L1465.39 910.693 1474.84 916.155 1476.59 908.293C1477.49 904.252 1477.65 901.659 1477.07 900.512 1476.78 899.939 1476.35 899.491 1475.78 899.168 1475.2 898.846 1474.54 898.701 1473.78 898.735 1473.03 898.768 1472 899.111 1470.71 899.762L1470.11 898.583 1486.01 890.593 1486.6 891.771C1485.36 892.422 1484.43 893.083 1483.8 893.754 1483.18 894.425 1482.64 895.372 1482.16 896.595 1481.87 897.382 1481.28 899.658 1480.41 903.422L1477.19 917.409 1497.99 929.094C1501.43 931.031 1503.73 932.102 1504.89 932.307 1506.04 932.511 1507.22 932.389 1508.43 931.94L1509.03 933.118 1487.98 943.703 1487.38 942.525C1489 941.554 1489.95 940.755 1490.25 940.127 1490.54 939.499 1490.55 938.91 1490.28 938.358 1490.08 937.975 1489.84 937.673 1489.54 937.451 1488.92 936.963 1487.58 936.148 1485.52 935.005L1474.52 928.845 1471.98 940.216C1471.23 943.651 1471.08 945.803 1471.52 946.674 1471.83 947.289 1472.37 947.734 1473.14 948.009 1473.92 948.283 1474.87 948.287 1475.98 948.018 1476.49 947.922 1477.44 947.526 1478.82 946.832L1479.41 948.011 1462.82 956.354 1462.23 955.175C1463.98 953.949 1465.21 952.692 1465.92 951.405 1466.85 949.713 1467.81 946.677 1468.8 942.296L1472.11 927.543 1453 916.923C1449.87 915.176 1448.09 914.219 1447.69 914.049 1446.76 913.637 1445.95 913.421 1445.25 913.401 1444.55 913.382 1443.67 913.543 1442.62 913.886Z" fill="#2D85C7" fill-rule="evenodd" fill-opacity="1"/><text fill="#000000" fill-opacity="0" font-family="Arial,Arial_MSFontService,sans-serif" font-size="65.7607" direction="ltr" writing-mode="lr-tb" x="1442.03" y="948.133">X</text><path d="M1493.93 886.596 1512.92 881.189 1534.71 908.119 1538.6 873.879 1557.52 868.491 1557.88 869.76 1556.37 870.189C1555 870.58 1553.97 871.132 1553.29 871.846 1552.81 872.329 1552.5 872.996 1552.37 873.848 1552.28 874.468 1552.56 875.932 1553.22 878.24L1561.94 908.889C1562.62 911.266 1563.17 912.715 1563.59 913.238 1564.01 913.761 1564.67 914.134 1565.58 914.359 1566.48 914.583 1567.58 914.51 1568.89 914.139L1570.39 913.71 1570.75 914.978 1546.48 921.888 1546.12 920.62 1547.63 920.19C1549 919.8 1550.03 919.248 1550.72 918.533 1551.2 918.051 1551.5 917.372 1551.62 916.497 1551.71 915.877 1551.43 914.402 1550.77 912.071L1540.96 877.617 1535.2 925.099 1534.38 925.334 1504.29 888.388 1513.62 921.128C1514.27 923.413 1514.72 924.803 1514.99 925.296 1515.61 926.354 1516.52 927.102 1517.72 927.538 1518.92 927.975 1520.58 927.891 1522.71 927.286L1523.07 928.554 1507.16 933.083 1506.8 931.815 1507.28 931.678C1508.32 931.408 1509.23 930.969 1510.02 930.361 1510.81 929.753 1511.35 929.087 1511.64 928.363 1511.92 927.638 1512.04 926.703 1511.99 925.557 1511.96 925.293 1511.65 924.121 1511.06 922.041L1502.68 892.627C1502.01 890.273 1501.47 888.84 1501.05 888.329 1500.64 887.818 1499.98 887.45 1499.07 887.226 1498.17 887.001 1497.06 887.074 1495.76 887.445L1494.29 887.865Z" fill="#2D85C7" fill-rule="evenodd" fill-opacity="1"/><text fill="#000000" fill-opacity="0" font-family="Arial,Arial_MSFontService,sans-serif" font-size="64.5919" direction="ltr" writing-mode="lr-tb" x="1493.93" y="925.009">M</text><path d="M1566.44 867.647 1591.3 865.469 1591.41 866.783 1590.17 866.891C1588.3 867.055 1587.03 867.363 1586.37 867.815 1585.71 868.267 1585.26 868.849 1585.02 869.561 1584.78 870.274 1584.79 872.003 1585.03 874.749L1587.09 898.326C1587.47 902.635 1588.05 905.459 1588.82 906.798 1589.59 908.138 1590.77 909.204 1592.34 909.997 1593.91 910.789 1595.83 911.086 1598.11 910.887 1600.71 910.659 1602.88 909.878 1604.61 908.546 1606.34 907.213 1607.57 905.477 1608.3 903.338 1609.03 901.199 1609.18 897.572 1608.73 892.459L1607.01 872.823C1606.82 870.669 1606.46 869.15 1605.93 868.266 1605.4 867.382 1604.77 866.793 1604.06 866.498 1602.94 866.047 1601.42 865.906 1599.47 866.076L1599.36 864.762 1616.01 863.303 1616.13 864.617 1615.13 864.704C1613.78 864.822 1612.68 865.193 1611.83 865.816 1610.98 866.44 1610.4 867.313 1610.09 868.438 1609.85 869.222 1609.82 870.597 1609.99 872.561L1611.59 890.848C1612.09 896.506 1612.07 900.622 1611.55 903.197 1611.02 905.771 1609.41 908.239 1606.7 910.599 1604 912.958 1600.15 914.357 1595.16 914.795 1590.99 915.16 1587.72 914.886 1585.35 913.972 1582.12 912.729 1579.76 910.98 1578.27 908.725 1576.79 906.469 1575.87 903.341 1575.52 899.341L1573.45 875.763C1573.21 872.994 1572.9 871.285 1572.54 870.637 1572.17 869.99 1571.59 869.498 1570.8 869.162 1570.01 868.826 1568.59 868.758 1566.56 868.961Z" fill="#2D85C7" fill-rule="evenodd" fill-opacity="1"/><text fill="#000000" fill-opacity="0" font-family="Arial,Arial_MSFontService,sans-serif" font-size="51.6482" direction="ltr" writing-mode="lr-tb" x="1566.44" y="908.495">U</text><path d="M1623.12 863.245 1640.21 864.532 1661.74 896.215 1663.3 875.493C1663.52 872.602 1663.25 870.616 1662.5 869.535 1661.47 868.075 1659.61 867.268 1656.93 867.113L1657.03 865.798 1672.95 866.997 1672.85 868.312C1670.79 868.419 1669.4 868.654 1668.67 869.016 1667.94 869.378 1667.34 870.013 1666.88 870.919 1666.42 871.826 1666.1 873.416 1665.93 875.691L1662.91 915.82 1661.7 915.729 1632.13 873.146 1629.82 903.785C1629.61 906.557 1630.11 908.477 1631.3 909.544 1632.5 910.611 1633.91 911.206 1635.55 911.329L1636.68 911.415 1636.58 912.73 1619.49 911.443 1619.59 910.128C1622.24 910.304 1624.13 909.898 1625.26 908.91 1626.38 907.922 1627.04 906.149 1627.23 903.59L1629.79 869.574 1628.85 868.217C1627.93 866.861 1627.1 865.952 1626.34 865.49 1625.59 865.028 1624.48 864.718 1623.02 864.56Z" fill="#2D85C7" fill-rule="evenodd" fill-opacity="1"/><text fill="#000000" fill-opacity="0" font-family="Arial,Arial_MSFontService,sans-serif" font-size="52.575" direction="ltr" writing-mode="lr-tb" x="1619.49" y="909.248">N</text><path d="M1699.09 872.484 1723.52 878.945 1723.18 880.22 1721.63 879.81C1720.28 879.452 1719.12 879.404 1718.17 879.668 1717.48 879.832 1716.87 880.259 1716.32 880.949 1715.92 881.433 1715.41 882.847 1714.79 885.19L1706.66 915.928C1706.03 918.318 1705.76 919.846 1705.87 920.513 1705.98 921.18 1706.36 921.839 1707.01 922.491 1707.66 923.142 1708.64 923.641 1709.95 923.988L1711.5 924.398 1711.16 925.673 1686.73 919.211 1687.07 917.936 1688.62 918.346C1689.97 918.705 1691.13 918.752 1692.08 918.489 1692.76 918.325 1693.37 917.895 1693.9 917.199 1694.3 916.715 1694.81 915.301 1695.43 912.957L1703.55 882.219C1704.19 879.83 1704.45 878.303 1704.36 877.639 1704.27 876.975 1703.89 876.317 1703.24 875.666 1702.59 875.014 1701.61 874.515 1700.3 874.169L1698.75 873.759Z" fill="#2D85C7" fill-rule="evenodd" fill-opacity="1"/><text fill="#000000" fill-opacity="0" font-family="Arial,Arial_MSFontService,sans-serif" font-size="53.1889" direction="ltr" writing-mode="lr-tb" x="1686.73" y="919.024">I</text><path d="M1729.13 880.68 1752.89 889.287 1752.44 890.527 1750.94 889.981C1749.62 889.504 1748.47 889.354 1747.5 889.531 1746.8 889.634 1746.15 890.004 1745.54 890.642 1745.1 891.09 1744.47 892.453 1743.64 894.731L1732.81 924.625C1731.97 926.949 1731.57 928.448 1731.62 929.121 1731.67 929.795 1731.98 930.486 1732.57 931.193 1733.17 931.899 1734.1 932.484 1735.37 932.945L1736.88 933.491 1736.43 934.731 1712.67 926.123 1713.12 924.883 1714.63 925.43C1715.94 925.907 1717.09 926.057 1718.06 925.879 1718.76 925.777 1719.4 925.403 1719.99 924.756 1720.43 924.309 1721.06 922.946 1721.89 920.667L1732.72 890.773C1733.56 888.45 1733.96 886.953 1733.93 886.283 1733.89 885.613 1733.58 884.925 1732.99 884.218 1732.4 883.511 1731.46 882.927 1730.19 882.466L1728.68 881.919Z" fill="#2D85C7" fill-rule="evenodd" fill-opacity="1"/><text fill="#000000" fill-opacity="0" font-family="Arial,Arial_MSFontService,sans-serif" font-size="54.0518" direction="ltr" writing-mode="lr-tb" x="1712.67" y="927.975">I</text><path d="M1758.3 891.501 1781.21 902.173 1780.65 903.368 1779.2 902.691C1777.93 902.099 1776.8 901.849 1775.81 901.94 1775.11 901.98 1774.43 902.292 1773.77 902.874 1773.29 903.28 1772.54 904.582 1771.51 906.779L1758.09 935.6C1757.05 937.841 1756.52 939.298 1756.5 939.974 1756.49 940.649 1756.75 941.365 1757.27 942.121 1757.8 942.878 1758.68 943.542 1759.9 944.114L1761.36 944.791 1760.8 945.986 1737.89 935.315 1738.45 934.119 1739.9 934.797C1741.17 935.389 1742.3 935.639 1743.29 935.548 1743.99 935.507 1744.66 935.191 1745.3 934.599 1745.78 934.193 1746.53 932.891 1747.56 930.694L1760.98 901.872C1762.03 899.632 1762.56 898.177 1762.58 897.506 1762.61 896.836 1762.36 896.123 1761.83 895.367 1761.3 894.61 1760.43 893.946 1759.2 893.374L1757.75 892.697Z" fill="#2D85C7" fill-rule="evenodd" fill-opacity="1"/><text fill="#000000" fill-opacity="0" font-family="Arial,Arial_MSFontService,sans-serif" font-size="54.4849" direction="ltr" writing-mode="lr-tb" x="1737.89" y="939.176">I</text></g></svg>